<svg width="42" height="42" viewBox="0 0 42 42" fill="none" xmlns="http://www.w3.org/2000/svg">
<path d="M0.877603 0.915865C1.4397 0.353452 2.20197 0.0375054 2.99677 0.0375054C3.79158 0.0375054 4.55385 0.353452 5.11595 0.915865L20.9813 16.7949L36.8466 0.915865C37.1231 0.629335 37.4538 0.400788 37.8195 0.243561C38.1852 0.0863336 38.5785 0.00357472 38.9765 0.000113271C39.3745 -0.00334818 39.7692 0.0725563 40.1376 0.223399C40.506 0.374242 40.8406 0.597001 41.1221 0.878679C41.4035 1.16036 41.6261 1.49531 41.7768 1.864C41.9275 2.23269 42.0033 2.62773 41.9999 3.02607C41.9964 3.42441 41.9137 3.81807 41.7566 4.18408C41.5996 4.55009 41.3712 4.88112 41.0849 5.15786L25.2196 21.0369L41.0849 36.9159C41.6309 37.4817 41.933 38.2395 41.9262 39.0261C41.9194 39.8127 41.6042 40.5651 41.0484 41.1213C40.4927 41.6775 39.7409 41.993 38.955 41.9999C38.169 42.0067 37.4119 41.7043 36.8466 41.1579L20.9813 25.2789L5.11595 41.1579C4.55063 41.7043 3.79347 42.0067 3.00756 41.9999C2.22165 41.993 1.46986 41.6775 0.914115 41.1213C0.35837 40.5651 0.0431345 39.8127 0.0363051 39.0261C0.0294757 38.2395 0.3316 37.4817 0.877603 36.9159L16.7429 21.0369L0.877603 5.15786C0.315674 4.59528 0 3.83236 0 3.03686C0 2.24137 0.315674 1.47845 0.877603 0.915865Z" fill="#B0B0B0"/>
</svg>
