<svg width="46" height="47" viewBox="0 0 46 47" fill="none" xmlns="http://www.w3.org/2000/svg">
<path d="M21.8755 0.0271806C9.62798 0.6182 -0.0370477 10.9555 0.000106762 23.3822C0.0114195 27.1671 0.912996 30.7395 2.50343 33.896L0.0615502 45.909C-0.0705421 46.5588 0.507736 47.1278 1.14468 46.9749L12.7594 44.1861C15.7434 45.6925 19.095 46.5626 22.6422 46.6175C35.1604 46.8112 45.5983 36.7375 45.9885 24.0553C46.4068 10.4608 35.3361 -0.622514 21.8755 0.0271806ZM35.7343 36.2162C32.3329 39.6635 27.8104 41.562 23 41.562C20.1834 41.562 17.4868 40.9215 14.9848 39.6584L13.3673 38.8418L6.24626 40.5517L7.7452 33.1772L6.94832 31.5957C5.64946 29.0177 4.99089 26.23 4.99089 23.3101C4.99089 18.4348 6.86414 13.8514 10.2656 10.404C13.6367 6.98745 18.2329 5.05804 23.0004 5.05804C27.8107 5.05815 32.333 6.95665 35.7345 10.4039C39.1359 13.8512 41.0092 18.4345 41.0093 23.3097C41.0092 28.1415 39.1054 32.7998 35.7343 36.2162Z" fill="#7AD06D"/>
<path d="M34.1623 28.3652L29.7072 27.0687C29.1215 26.8983 28.4908 27.0667 28.064 27.5075L26.9746 28.6324C26.5152 29.1067 25.8181 29.2592 25.2101 29.0098C23.1026 28.1455 18.6694 24.1506 17.5372 22.1524C17.2106 21.576 17.2646 20.8554 17.6656 20.3295L18.6168 19.0823C18.9895 18.5937 19.0681 17.9375 18.8216 17.3727L16.9473 13.0763C16.4983 12.0472 15.2008 11.7476 14.3531 12.4742C13.1097 13.54 11.6344 15.1597 11.4551 16.954C11.1389 20.1175 12.4776 24.1053 17.5398 28.8937C23.388 34.4257 28.0712 35.1565 31.1204 34.4079C32.8499 33.9834 34.2321 32.2814 35.1044 30.8878C35.6991 29.9376 35.2295 28.6758 34.1623 28.3652Z" fill="#7AD06D"/>
</svg>
